# xmcd
#
# Track frame offsets:
#	150
#	8520
#	19617
#	27390
#	40366
#	50245
#	59162
#	70304
#	78689
#	91136
#	97242
#	102756
#	111505
#	115483
#	119794
#	122437
#	133453
#	142067
#	152736
#	163038
#	174165
#	187537
#	198304
#	201893
#	207986
#	215900
#
# Disc length: 2943 seconds
#
# Revision: 0
# Processed by: cddbd v1.5.2PL0 Copyright (c) Steve Scherf et al.
# Submitted via: audiograbber 1.83.01
#
DISCID=8d0b7d1a
DTITLE=Eddie Cochran - Rockin' It Country Style
DYEAR=1997
DGENRE=Country
TTITLE0=Rockin' It (with Chuck Foreman)
TTITLE1=Gambler's Guitar
TTITLE2=Jammin' With Jimmy (with Chuck Foreman)
TTITLE3=Tenderly (with Chuck Foreman)
TTITLE4=Steelin' The Blues
TTITLE5=Two Of A Kind (with Chuck Foreman)
TTITLE6=Stardust
TTITLE7=Candy Kisses (with Chuck Foreman)
TTITLE8=Chuck and Eddie's Boogie (with Chuck Foreman)
TTITLE9=In The Mood (with Chuck Foreman)
TTITLE10=I'll See You In My Dreams (with Chuck Foreman)
TTITLE11=Hearts Of Stone
TTITLE12=Cannonball Rag
TTITLE13=Blue Gypsy
TTITLE14=The Poor People Of Paris
TTITLE15=That's Alright Mama (Bob Denton)
TTITLE16=She Done Give Her Heart To Me
TTITLE17=Remington Ride (with Carl West)
TTITLE18=Live Fast, Love Hard, Die Young
TTITLE19=Rockin' and Flyin' (The Cochran Brothers)
TTITLE20=Closer, Closer, Closer(Jerry Capehart and The Cochran Brothers)
TTITLE21=A Healer Like Time (Hank Cochran)
TTITLE22=Water Baby Blues (short riff)
TTITLE23=Stardust (backing track)
TTITLE24=Two Of A Kind (backing track)
TTITLE25=Humourous conversation (with Chuck Foreman)
EXTD=
EXTT0=
EXTT1=
EXTT2=
EXTT3=
EXTT4=
EXTT5=
EXTT6=
EXTT7=
EXTT8=
EXTT9=
EXTT10=
EXTT11=
EXTT12=
EXTT13=
EXTT14=
EXTT15=
EXTT16=
EXTT17=
EXTT18=
EXTT19=
EXTT20=
EXTT21=
EXTT22=
EXTT23=
EXTT24=
EXTT25=
PLAYORDER=
